<?xml version="1.0" encoding="utf-8"?><svg viewbox="0 0 40 40" xmlns="http://www.w3.org/2000/svg" xmlns:xlink="http://www.w3.org/1999/xlink"><style>:root>svg{display:none}:root>svg:target{display:block}</style><svg viewbox="0 0 15 15" id="cross" xmlns="http://www.w3.org/2000/svg"><path transform="matrix(.68158 .73175 -.68158 .73175 1 2)" stroke-width="2.111" stroke-linecap="round" d="M1.055-1.055h15.553"/><path transform="matrix(.68158 -.73175 .68158 .73175 1.96 15)" stroke-width="2.111" stroke-linecap="round" d="M1.055-1.055h15.553"/></svg><svg viewbox="0 0 30 30" id="fb" xmlns="http://www.w3.org/2000/svg"><path fill-rule="evenodd" clip-rule="evenodd" d="M15 0C6.716 0 0 6.716 0 15c0 8.284 6.716 15 15 15 8.284 0 15-6.716 15-15 0-8.284-6.716-15-15-15zm1.32 15v8h-3.548v-8H11v-2.758h1.772v-1.655c0-2.25 1.001-3.587 3.844-3.587h2.367v2.757h-1.48c-1.106 0-1.18.386-1.18 1.105l-.003 1.38H19l-.314 2.757H16.32z"/></svg><svg viewbox="0 0 30 30" id="inst" xmlns="http://www.w3.org/2000/svg"><path fill-rule="evenodd" clip-rule="evenodd" d="M15 0C6.716 0 0 6.716 0 15c0 8.284 6.716 15 15 15 8.284 0 15-6.716 15-15 0-8.284-6.716-15-15-15zm-3.298 7.048C12.555 7.01 12.828 7 15.001 7h-.003c2.174 0 2.445.01 3.299.048.851.04 1.433.174 1.943.372.527.204.972.478 1.417.923.445.444.718.89.923 1.417.197.508.332 1.09.372 1.941.038.854.048 1.126.048 3.3 0 2.172-.01 2.444-.048 3.297-.04.852-.175 1.433-.372 1.942a3.927 3.927 0 01-.923 1.417c-.445.445-.89.719-1.416.923-.51.198-1.091.333-1.943.372-.854.039-1.125.048-3.298.048s-2.445-.01-3.299-.048c-.851-.04-1.433-.174-1.942-.372a3.918 3.918 0 01-1.416-.923 3.92 3.92 0 01-.923-1.417c-.198-.509-.332-1.09-.372-1.942C7.01 17.445 7 17.173 7 15s.01-2.445.048-3.299c.038-.851.173-1.433.372-1.941.205-.526.478-.973.923-1.417A3.918 3.918 0 019.76 7.42c.509-.198 1.09-.333 1.942-.372z"/><path fill-rule="evenodd" clip-rule="evenodd" d="M14.283 8.442h.718c2.136 0 2.389.007 3.232.046.78.035 1.204.166 1.486.275.373.145.64.319.92.599.28.28.453.546.598.92.11.281.24.705.275 1.485.039.843.047 1.096.047 3.231s-.008 2.389-.047 3.232c-.035.78-.166 1.203-.275 1.485-.145.373-.319.64-.599.919-.28.28-.546.453-.92.598-.28.11-.704.24-1.485.276-.843.038-1.096.047-3.232.047s-2.39-.009-3.233-.047c-.78-.036-1.203-.166-1.485-.276a2.478 2.478 0 01-.92-.598 2.48 2.48 0 01-.6-.92c-.109-.281-.24-.705-.275-1.485-.038-.843-.046-1.096-.046-3.233 0-2.136.008-2.388.046-3.231.036-.78.166-1.204.276-1.486.145-.373.319-.64.599-.92.28-.28.546-.453.92-.598.282-.11.705-.24 1.485-.276.738-.034 1.024-.044 2.515-.045v.002zm4.988 1.328a.96.96 0 100 1.92.96.96 0 000-1.92zM10.893 15a4.109 4.109 0 118.217 0 4.109 4.109 0 01-8.217 0z"/><path fill-rule="evenodd" clip-rule="evenodd" d="M15 12.334a2.667 2.667 0 110 5.333 2.667 2.667 0 010-5.334z"/></svg><svg viewbox="0 0 40 40" id="next" xmlns="http://www.w3.org/2000/svg"><path fill-rule="evenodd" clip-rule="evenodd" d="M36.667 20c0 9.2-7.484 16.667-16.667 16.667l-.466-.007c-8.985-.247-16.2-7.616-16.2-16.66C3.334 10.817 10.8 3.333 20 3.333c9.183 0 16.667 7.484 16.667 16.667zM16.7 13.333c-.483.5-.483 1.284.017 1.767l4.917 4.9-4.917 4.9c-.5.483-.5 1.283-.017 1.767.5.5 1.284.5 1.767 0l5.817-5.784a1.249 1.249 0 000-1.766l-5.817-5.784a1.173 1.173 0 00-.867-.366c-.333 0-.65.116-.9.366z"/></svg><svg viewbox="0 0 24 24" id="phone" xmlns="http://www.w3.org/2000/svg"><path d="M18.167 14.38c-.672-.145-1.203.167-1.674.44-.482.28-1.398 1.023-1.923.833-2.689-1.107-5.218-3.46-6.313-6.16-.193-.537.547-1.459.826-1.946.27-.472.576-1.008.436-1.685-.126-.608-1.754-2.68-2.33-3.247-.38-.374-.768-.58-1.168-.613-1.5-.064-3.177 1.939-3.472 2.418-.736 1.022-.732 2.382.013 4.03 1.795 4.429 8.585 11.112 13.03 12.975.82.383 1.57.575 2.245.575.659 0 1.246-.183 1.75-.548.381-.22 2.467-1.98 2.412-3.521-.033-.393-.238-.786-.608-1.167-.562-.58-2.62-2.257-3.224-2.384z"/></svg><svg viewbox="0 0 40 40" id="prev" xmlns="http://www.w3.org/2000/svg"><path fill-rule="evenodd" clip-rule="evenodd" d="M3.333 20c0 9.2 7.483 16.667 16.667 16.667l.466-.007c8.985-.247 16.2-7.616 16.2-16.66C36.666 10.817 29.2 3.333 20 3.333 10.816 3.333 3.333 10.817 3.333 20zM23.3 13.333c.483.5.483 1.284-.017 1.767L18.366 20l4.917 4.9c.5.483.5 1.283.017 1.767-.5.5-1.284.5-1.767 0l-5.817-5.784a1.249 1.249 0 010-1.766l5.817-5.784c.233-.25.55-.366.867-.366.333 0 .65.116.9.366z"/></svg></svg>